<svg id="Layer_1" data-name="Layer 1" xmlns="http://www.w3.org/2000/svg" viewBox="0 0 587.7 503.52"><defs><style>.cls-1{fill:#c30d23;}.cls-2{fill:#231815;}</style></defs><title>phoenix</title><polygon class="cls-1" points="293.85 0 587.7 503.52 0 503.52 293.85 0"/><path class="cls-2" d="M156.9,457.53s5.78-3.7,16.81-6.85,23.91-4.41,45.24,1,36.66,10.69,60.79,10,52.35-10,66.17-17.84l12.47,2.41s-20.73,11.44-43.89,15.24-42.56,6.49-69.37,0c-26.31-6.38-35.65-11.55-56.33-10.62-19.77.89-37.21,14.82-37.21,14.82Z" transform="translate(-3.79 -150.21)"/><path class="cls-2" d="M339.85,472.9s-14.94,1.37-15.31,15.75,4,17.87,4,17.87l-7.29-3s-6.09-13.12,2.29-23.37,16.12-11.38,24.37-9.75,23,8.29,26,25.33S356,515.15,356,515.15s13.74-12.61,8-26.75S347.91,472.4,339.85,472.9Z" transform="translate(-3.79 -150.21)"/><path class="cls-2" d="M356,515.15s-17.38,13.75-39.25,7.37S273,496.9,255.66,481.77s-26.25-27.75-70.5-30.62h-7.75l-3.25,3.67a101.72,101.72,0,0,1,18.38,0c9,.95,32.12,3.33,47.75,17.45s34,34.5,50.75,44.5,31.37,18.75,54.12,18,36.74-25,27.19-44.77-6.19,1.65-6.19,1.65S370.41,503.9,356,515.15Z" transform="translate(-3.79 -150.21)"/><path class="cls-2" d="M280.41,424.36s-12.66,9.83-23.66,12.33-26.5,2-38.67-2.5-14-5.5-17.5-8.5-3.83,1.83-3.83,1.83a47.1,47.1,0,0,0,21.33,14.17c13.5,4.17,29.33,6.67,46.83,3s27.34-11.33,30.67-16.67S280.41,424.36,280.41,424.36Z" transform="translate(-3.79 -150.21)"/><path class="cls-2" d="M359,413.69s1.72,6.67,10.55,6.83a9.73,9.73,0,0,0,8.33-15.33c-4.33-5.83-13.76-8-18.88,0s-.78-7.33,9.05-8,16.33,2.83,17.5,12.5-3.21,17-14.35,18.67-18.48-6.92-17.82-15.63Z" transform="translate(-3.79 -150.21)"/><path class="cls-2" d="M391.58,400.69s-11.71-11.44-29.19-1.3l-6.74,13.72-2.24-.38s-.33-15.37,13.17-20.87,28.83-1.91,35.17,10.63S391.58,400.69,391.58,400.69Z" transform="translate(-3.79 -150.21)"/><path class="cls-2" d="M359,413.69A11.92,11.92,0,0,1,362,402c5.19-5.57-2.31-1.57-2.31-1.57l-4.87,10-.63,4.62,4.22,2.75Z" transform="translate(-3.79 -150.21)"/><path class="cls-2" d="M391.58,400.69S402.29,413.77,388,426s-29.25,12.75-43.75,11S312,430.2,294.16,423.49s-43.87-13-75.12-5.84-42.25,17.14-48.88,23.19l4,2.18,19-13.5,17.38-5.41L231.29,418l20.5.38,24.62,2.5,29.88,10.62,25.25,7.5,26.84,4,24.28-6.75,16.13-12.16,4.41-17.46-9.29-8.25Z" transform="translate(-3.79 -150.21)"/><path class="cls-2" d="M156.9,457.53s13.26-12.13,25.39-18.88,28-16.13,53.87-18.5,45.91,5.37,63.52,12.12,39.89,17.27,64.12,14.2,34.49-11.32,38.36-21,4.22-22.06-6-30.15-4.17,1.74-4.17,1.74l6.62,16-3.75,11.74-15.75,11.92-25,3.75-23-3.37-39.37-13-21.88-5.46-37.25-2.5-13.87,3.25-31.13,10.87-16.12,10.25L155.66,453.4Z" transform="translate(-3.79 -150.21)"/><ellipse class="cls-2" cx="241.06" cy="278.94" rx="5.06" ry="9.88"/><path class="cls-2" d="M169.54,443.9,161,449.07l4.16-7.92,27.38-22.75L215.66,409l28-5.75,16.75-1.3,37.88,6.42h34.37l18-11.28,6.38-7.75,8.75-12.46,3.78-5.13-.91-10.37-1.25-14.75-6.5-14.38-10.75-13.5-12.5-11.62L320,304.9l-8.13.75-14,7.25-10.62,8.75-5.13,7.25-2.5.25c16.75-28.5,52.88-36.5,75.75-13.75s21,46.87,14.5,60.37S346.54,409,323,413.77s-45.95-5.25-65.83-6.5-37.62,4.63-55,12a99,99,0,0,0-28.47,18.44L176,440Z" transform="translate(-3.79 -150.21)"/><path class="cls-2" d="M149.29,468.9a27.22,27.22,0,0,0-7.25,8.5c-2.75,5.25-6.75,9-5.25,3.62s7.75-18,18-29.87,26.5-31.63,50.87-41.5,45.75-14.88,71.63-9.75,38.12,7.75,50.37,5.12,24-10.25,29.5-18.5,14.25-24.62,4.75-47.5-35.75-31-50.75-27.25-25,10.88-29.37,24.63-3.88.25-3.88.25l6.13-12.5,8.12-8.25,14-8.88,8.5-3.12h15.5L344.41,309l16,16.25,10.13,24,1.12,18.13-1.37,5.12-14.13,19.65-9,9.8-14.25,7.93-18.12,2.94-26.13-3.69-18.75-4.38-14.37-.5-26.38,4-19.87,7.25-14.63,3.75L177,434l-9.13,5.88,3.63.62-13.75,14.3-1.38,5.08Z" transform="translate(-3.79 -150.21)"/><path class="cls-2" d="M174.16,454.82s29.2-.93,48.37,8.9,25.88,21.7,40.22,41.5,35.66,42,72.66,48.64,60.17-17.5,63.17-36-.83-31.5-10.67-42c0,0,5.75,3.54,13.13,14.54s20.25,34.87,3.75,62.62-55.5,24.25-77.38,14.13-43.62-33.88-43.62-33.88l-23.88-27.12-14.12-21.5s-16.63-15-17-15.25-21.13-9.75-21.13-9.75l-20.12-2.12a66.93,66.93,0,0,0-38.25,11.37c-18.5,12.62,1.12-8,1.12-8l13.25-5.5,13.12-3.54,4,.91Z" transform="translate(-3.79 -150.21)"/><path class="cls-2" d="M295.08,539.69l46.81,32.44a105.1,105.1,0,0,1-39.48-17.61,151.25,151.25,0,0,1-37.5-39.37c-6.66-10-19.16-31.46-38-43S197.8,460,185.66,459.4s-32,1.25-43.62,18,3.07-10.55,3.07-10.55L165,457.53l16.67-1.63,13.38.87,13.62,2.63,17.13,7.25,6,3.5,7.94,6.37,7.56,9.5,11.62,15.25,23.25,29.63,8.88,6Z" transform="translate(-3.79 -150.21)"/><path class="cls-2" d="M332.29,504.77s3,2.88,10.87,1.88,12.38-8,10.75-14.18-6.75-12.7-15.12-11.07-11.38,8.5-8.25,15-6.5,4.87-6.5,4.87-3.63-17.75,7.75-22.12,20.12.37,23.87,6.62,7.88,19.25-6.5,26.25-25.28-2.21-28.14-9,3.77-8.46,3.77-8.46l4.62,4.63Z" transform="translate(-3.79 -150.21)"/><path class="cls-2" d="M331.75,504.61a21.72,21.72,0,0,0,7.08,1c4.08-.09,12.58-1.84,14.08-8.5s-.5-10.92-4.83-14.84-13-.91-13-.91l-1.17.91,8.67-1.06,5.17,3.15,3.75,5.25-.17,4.75-2.25,5.08-7.19,2.92-8.06-.67-4.21-2.14.46,4.22Z" transform="translate(-3.79 -150.21)"/><path class="cls-2" d="M330.76,496.89s1.84,3.81,7.32,4.3,12.17-1.17,11.67-10.08-7.69-9.78-10.6-9.13-.9-2.37-.9-2.37h5.08l5.9,3.76,2.68,4.82.34,4.75L350.91,498l-2.41,3.67-4.84,2.08h-6.33l-6.57-1.66L328,499.44Z" transform="translate(-3.79 -150.21)"/><path class="cls-2" d="M329.34,491.69s-.26-8.89,10.78-9.85,4.29-2.23,4.29-2.23l-11,.65-7.5,8,2.67,4.2Z" transform="translate(-3.79 -150.21)"/><path class="cls-2" d="M282.84,333.49s-6.26,16.2,6.74,34.2,37.17,17.67,48.17,7,15.16-18.17,10.16-32.83-22.66-16.84-31.33-14-.91-4.84-.91-4.84l14.24-.83,14.17,7.33,9.29,17.34v15.33l-9.46,13.45-13.16,9.88h-20.5l-21-9.88-10.17-15.95v-21l4.5-10.83Z" transform="translate(-3.79 -150.21)"/><path class="cls-2" d="M279.66,329.15s-13.58,18.71-2.08,39.37,30.83,23.5,44.83,20.84,29.67-12.84,33-32.34-12.5-38.16-30.5-39-22.33,9.67-22.33,9.67l9.33-1.17,10.34-2.66,16,4.5,6.66,5.16,4.5,8.5,2.5,12.07-2.5,7.77-7.83,12-8.83,6.66-15.17,5.34-7.17-2.5L298.75,380l-14.67-13-5-15.16,1.09-17.67,4.41-6.5-3.17-1.33Z" transform="translate(-3.79 -150.21)"/><path class="cls-2" d="M336.71,375.64s-15,7.22-27.63-1.28-13.17-25.67-6.33-36.17,18-11.93,26.33-11,6.17-3.5,6.17-3.5l-24.05-3.56s-19.49,7.74-22.62,24.23,9.33,31.34,22,34.3,16,1.81,23.37,0S336.71,375.64,336.71,375.64Z" transform="translate(-3.79 -150.21)"/><path class="cls-2" d="M288.58,344.36a26.1,26.1,0,0,1,13.5-20.67c13-7,24-8.26,35.19-2.21s2.14,5.54,2.14,5.54l-25-2.63-15,9.8-5,12.67-4.5,2.33Z" transform="translate(-3.79 -150.21)"/><path class="cls-2" d="M292.66,332.44a26.33,26.33,0,0,0-4.81,19.26c1.65,11.42,5.64,7.93,5.64,7.93l1.87-15.73Z" transform="translate(-3.79 -150.21)"/></svg>